<svg width="19" height="19" fill="none" xmlns="http://www.w3.org/2000/svg">
  <g clip-path="url(#a)" fill="#282828">
    <path d="M17.327 4.725a.445.445 0 0 0-.623-.09L9.52 9.994a.149.149 0 0 1-.178 0L2.3 4.61a.445.445 0 0 0-.54.708l5.536 4.235-5.476 4.127a.448.448 0 1 0 .536.718l5.675-4.284.769.594a1.04 1.04 0 0 0 1.251.01l.808-.604 5.741 4.284a.445.445 0 1 0 .533-.714l-5.53-4.132 5.633-4.208a.445.445 0 0 0 .09-.62Z"/>
    <path d="M16.773 2.82H2.227A2.227 2.227 0 0 0 0 5.047v8.906a2.226 2.226 0 0 0 2.227 2.227h14.546A2.227 2.227 0 0 0 19 13.953V5.047a2.227 2.227 0 0 0-2.227-2.227Zm1.336 11.133a1.336 1.336 0 0 1-1.336 1.336H2.227A1.336 1.336 0 0 1 .89 13.953V5.047A1.336 1.336 0 0 1 2.227 3.71h14.546a1.336 1.336 0 0 1 1.336 1.336v8.906Z" stroke="#282828" stroke-width=".5"/>
  </g>
  <defs>
    <clipPath id="a">
      <path fill="#fff" d="M0 0h19v19H0z"/>
    </clipPath>
  </defs>
</svg>
