<svg  fill="none" xmlns="http://www.w3.org/2000/svg">
  <path opacity=".4" d="M124.998 107.739c-4.678-1.4-9.607-5.933-14.788-13.6-4.978-7.776-5.927-16.81-2.847-27.1 3.081-10.292 9.724-18.582 19.931-24.871 10.208-6.29 20.613-7.847 31.216-4.673 10.603 3.173 18.424 8.827 23.465 16.962 5.041 8.134 5.974 17.503 2.801 28.106-3.127 10.447-9.248 20.678-18.361 30.692-8.958 10.061-19.67 18.323-32.138 24.785-12.312 6.508-24.259 9.813-35.842 9.914-4.415-4.55-5.993-9.779-4.734-15.688 7.123-2.795 13.769-6.837 19.94-12.126 6.372-5.398 10.158-9.532 11.357-12.401ZM41.032 82.607c-4.522-1.353-9.374-5.863-14.554-13.53-4.978-7.776-5.927-16.81-2.847-27.1 3.127-10.448 9.77-18.738 19.931-24.871 10.208-6.29 20.613-7.847 31.216-4.673 10.603 3.173 18.346 8.804 23.231 16.892 5.041 8.134 5.974 17.503 2.801 28.106-3.127 10.447-9.248 20.678-18.361 30.692-8.958 10.061-19.67 18.323-32.138 24.785-12.312 6.508-24.26 9.813-35.842 9.914-4.368-4.705-5.946-9.935-4.734-15.688 7.279-2.748 14.003-6.767 20.173-12.056 6.17-5.288 9.878-9.446 11.123-12.47Z" fill="#FFC700"/>
</svg>
