<svg aria-hidden="true" style="position: absolute; width: 0; height: 0; overflow: hidden;" version="1.1" xmlns="http://www.w3.org/2000/svg" xmlns:xlink="http://www.w3.org/1999/xlink">
<defs>
<symbol id="icon-arrow" viewBox="0 0 60 32">
    <path d="M57.416 17.416c0.363-0.362 0.588-0.863 0.588-1.416s-0.225-1.054-0.588-1.416l-12.728-12.728c-0.362-0.362-0.863-0.587-1.416-0.587-1.106 0-2.003 0.897-2.003 2.003 0 0.553 0.224 1.054 0.587 1.416l11.316 11.312-11.316 11.312c-0.362 0.362-0.587 0.863-0.587 1.416 0 1.106 0.897 2.003 2.003 2.003 0.553 0 1.054-0.224 1.416-0.587v0l12.728-12.728zM0 18h56v-4h-56v4z"></path>
</symbol>
<symbol id="icon-vk" viewBox="0 0 32 32">
    <path fill="#fff" style="fill: var(--color1, #fff)" d="M28.89 22c-1.243-1.94-2.605-3.626-4.13-5.15l-0-0c-0.027-0.034-0.044-0.078-0.044-0.125s0.017-0.091 0.044-0.125l-0 0c1.245-1.679 2.424-3.582 3.443-5.58l0.107-0.23c0.129-0.25 0.205-0.546 0.205-0.859 0-0.371-0.106-0.717-0.29-1.009l0.005 0.008c-0.315-0.558-0.904-0.929-1.58-0.93h-3c-0.796 0.016-1.477 0.495-1.785 1.177l-0.005 0.013c-0.966 2.117-2.007 3.925-3.195 5.623l0.075-0.113v-4.9c0-0.004 0-0.008 0-0.012 0-0.988-0.8-1.788-1.788-1.788-0.004 0-0.008 0-0.013 0h-4.379c-0.764 0.012-1.378 0.634-1.378 1.4 0 0.304 0.097 0.585 0.261 0.814l-0.003-0.004 0.4 0.56c0.215 0.308 0.33 0.675 0.33 1.050v3.84c-1.244-1.816-2.3-3.903-3.065-6.126l-0.055-0.184c-0.278-0.792-1.019-1.349-1.89-1.35h-2.45c-0.946 0.012-1.709 0.782-1.709 1.73 0 0.146 0.018 0.287 0.052 0.422l-0.003-0.012c1.35 5.73 4.18 10.48 7.77 13 0.161 0.116 0.362 0.185 0.58 0.185 0.552 0 1-0.448 1-1 0-0.335-0.165-0.631-0.417-0.813l-0.003-0.002c-3.14-2.2-5.64-6.39-6.91-11.51h2.1c0.992 2.965 2.385 5.537 4.145 7.81l-0.045-0.060c0.296 0.375 0.75 0.614 1.26 0.614 0.194 0 0.379-0.034 0.551-0.097l-0.011 0.004c0.646-0.23 1.1-0.836 1.1-1.549 0-0.008-0-0.015-0-0.023v0.001-4.88c0-0.004 0-0.008 0-0.013 0-0.662-0.17-1.285-0.47-1.826l0.010 0.019h3v5.43c-0 0.005-0 0.011-0 0.016 0 0.807 0.54 1.487 1.278 1.701l0.012 0.003c0.164 0.056 0.353 0.089 0.549 0.089 0.603 0 1.134-0.307 1.447-0.773l0.004-0.006c1.323-1.863 2.533-3.985 3.527-6.225l0.093-0.235h2.8c-1.057 2.064-2.15 3.821-3.368 5.481l0.078-0.111c-0.27 0.358-0.432 0.809-0.432 1.299 0 0.597 0.241 1.138 0.632 1.531l-0-0c1.423 1.433 2.713 3.003 3.848 4.686l0.072 0.114h-3.35c-1.057-1.73-2.418-3.168-4.023-4.28l-0.047-0.030c-0.268-0.198-0.605-0.317-0.969-0.317-0.278 0-0.54 0.069-0.77 0.191l0.009-0.004c-0.551 0.286-0.92 0.852-0.92 1.504 0 0.005 0 0.011 0 0.016v-0.001 2.38c0 0.006 0 0.014 0 0.021 0 0.282-0.221 0.513-0.499 0.529l-0.001 0h-0.86c-0.552 0-1 0.448-1 1s0.448 1 1 1v0h0.86c1.383-0.011 2.5-1.135 2.5-2.52 0-0.011-0-0.021-0-0.032v0.002-1.77c1.2 0.909 2.2 2.011 2.971 3.269l0.029 0.051c0.345 0.59 0.97 0.984 1.688 1l0.002 0h3.38c0.001 0 0.003 0 0.005 0 0.723 0 1.353-0.4 1.68-0.99l0.005-0.010c0.155-0.278 0.247-0.609 0.247-0.962 0-0.388-0.11-0.75-0.301-1.056l0.005 0.008z"></path>
</symbol>
<symbol id="icon-inst" viewBox="0 0 32 32">
    <path fill="#fff" style="fill: var(--color1, #fff)" d="M15.997 2.347c-3.708 0-4.173 0.015-5.63 0.082-1.452 0.066-2.445 0.297-3.313 0.634-0.947 0.362-1.754 0.898-2.418 1.574l-0.001 0.001c-0.677 0.665-1.212 1.472-1.559 2.373l-0.015 0.046c-0.338 0.868-0.569 1.86-0.635 3.314-0.067 1.456-0.082 1.921-0.082 5.629s0.015 4.173 0.082 5.63c0.066 1.452 0.297 2.445 0.635 3.313 0.348 0.898 0.815 1.66 1.574 2.419 0.665 0.677 1.472 1.213 2.373 1.559l0.046 0.015c0.868 0.337 1.86 0.568 3.314 0.634 1.456 0.066 1.921 0.082 5.63 0.082 3.707 0 4.172-0.015 5.628-0.082 1.453-0.066 2.446-0.297 3.314-0.635 0.947-0.362 1.754-0.897 2.418-1.573l0.001-0.001c0.677-0.665 1.213-1.472 1.559-2.373l0.015-0.046c0.337-0.868 0.568-1.86 0.634-3.314 0.067-1.456 0.082-1.921 0.082-5.629s-0.015-4.173-0.082-5.63c-0.066-1.452-0.297-2.445-0.634-3.313-0.362-0.947-0.898-1.754-1.574-2.418l-0.001-0.001c-0.665-0.677-1.472-1.213-2.373-1.559l-0.046-0.015c-0.868-0.337-1.86-0.568-3.314-0.634-1.456-0.067-1.921-0.082-5.629-0.082zM15.997 4.807c3.646 0 4.078 0.014 5.517 0.080 1.331 0.060 2.054 0.283 2.535 0.47 0.616 0.231 1.14 0.578 1.569 1.019l0.001 0.001c0.443 0.43 0.791 0.954 1.012 1.541l0.010 0.029c0.187 0.482 0.409 1.205 0.47 2.536 0.065 1.44 0.080 1.871 0.080 5.517 0 3.645-0.015 4.077-0.080 5.517-0.061 1.331-0.284 2.054-0.47 2.535-0.231 0.616-0.579 1.14-1.021 1.569l-0.001 0.001c-0.43 0.442-0.954 0.79-1.541 1.011l-0.029 0.010c-0.48 0.188-1.204 0.41-2.535 0.47-1.44 0.066-1.871 0.080-5.517 0.080s-4.078-0.014-5.517-0.080c-1.331-0.060-2.054-0.282-2.535-0.47-0.616-0.231-1.14-0.578-1.569-1.019l-0.001-0.001c-0.442-0.43-0.79-0.954-1.011-1.541l-0.010-0.029c-0.187-0.482-0.41-1.205-0.47-2.536-0.066-1.44-0.080-1.872-0.080-5.517 0-3.646 0.014-4.077 0.080-5.517 0.060-1.331 0.283-2.054 0.47-2.535 0.231-0.616 0.578-1.14 1.019-1.569l0.001-0.001c0.43-0.443 0.954-0.791 1.541-1.012l0.029-0.010c0.482-0.186 1.205-0.409 2.536-0.47 1.44-0.065 1.871-0.080 5.517-0.080z"></path>
    <path fill="#fff" style="fill: var(--color1, #fff)" d="M15.995 20.551c-2.513 0-4.551-2.038-4.551-4.551s2.038-4.551 4.551-4.551v0c2.513 0 4.551 2.038 4.551 4.551s-2.038 4.551-4.551 4.551v0zM15.995 8.989c-3.872 0-7.011 3.139-7.011 7.011s3.139 7.011 7.011 7.011v0c3.872 0 7.011-3.139 7.011-7.011s-3.139-7.011-7.011-7.011v0zM24.925 8.712c0 0.905-0.733 1.638-1.638 1.638s-1.638-0.733-1.638-1.638v0c0-0.905 0.733-1.638 1.638-1.638s1.638 0.733 1.638 1.638v0z"></path>
</symbol>
<symbol id="icon-facebook" viewBox="0 0 32 32">
    <path fill="none" stroke="#fff" style="stroke: var(--color1, #fff)" stroke-linejoin="miter" stroke-linecap="butt" stroke-miterlimit="4" stroke-width="2.1333" d="M22.797 12.506c0.001-0.006 0.001-0.014 0.001-0.021 0-0.118-0.096-0.213-0.213-0.213-0 0-0.001 0-0.001 0h-4.077v-2.831c0-1.062 0.704-1.31 1.2-1.31h2.833c0.117 0 0.212-0.096 0.212-0.213v-4.247c0-0.118-0.096-0.213-0.213-0.213v0l-3.981-0.015c-4.655 0-5.714 3.485-5.714 5.715v3.115h-2.481c-0.118 0-0.213 0.095-0.213 0.213v0 4.387c0 0.117 0.096 0.213 0.213 0.213h2.48v13.413c0 0.117 0.095 0.211 0.213 0.211h5.236c0.117 0 0.213-0.093 0.213-0.211v-13.413h3.628c0 0 0.001 0 0.001 0 0.11 0 0.201-0.084 0.212-0.191l0-0.001 0.45-4.387z"></path>
</symbol>
<symbol id="icon-polygon" viewBox="0 0 18 32">
<path fill="none" stroke-linejoin="miter" stroke-linecap="butt" stroke-miterlimit="4" stroke-width="1.4222" d="M17.067 0.711l-15.293 13.7c-0.437 0.392-0.71 0.959-0.71 1.589s0.273 1.197 0.708 1.588l0.002 0.002 15.293 13.7"></path>
</symbol>
<symbol id="icon-mail" viewBox="0 0 32 32">
<path d="M29.182 7.958c-0.138-0.183-0.356-0.301-0.6-0.301-0.169 0-0.325 0.056-0.451 0.151l0.002-0.001-12.099 9.026c-0.041 0.031-0.093 0.050-0.15 0.050s-0.109-0.019-0.151-0.050l0.001 0-11.86-9.068c-0.125-0.096-0.283-0.154-0.455-0.154-0.414 0-0.75 0.336-0.75 0.75 0 0.242 0.115 0.458 0.293 0.595l0.002 0.001 9.324 7.133-9.223 6.951c-0.185 0.139-0.303 0.358-0.303 0.605 0 0.417 0.338 0.755 0.755 0.755 0.17 0 0.327-0.056 0.453-0.151l-0.002 0.001 9.558-7.215 1.295 1c0.292 0.225 0.662 0.361 1.065 0.361 0.392 0 0.755-0.129 1.047-0.347l-0.005 0.003 1.361-1.017 9.669 7.215c0.124 0.093 0.28 0.149 0.449 0.149 0.414 0 0.75-0.336 0.75-0.75 0-0.245-0.118-0.463-0.3-0.6l-0.002-0.001-9.314-6.959 9.487-7.087c0.182-0.138 0.298-0.355 0.298-0.599 0-0.168-0.055-0.323-0.148-0.448l0.001 0.002z"></path>
<path stroke-linejoin="miter" stroke-linecap="butt" stroke-miterlimit="4" stroke-width="0.8421" d="M28.249 4.749h-24.499c-2.071 0-3.751 1.679-3.751 3.751v0 15c0 0 0 0.001 0 0.002 0 2.071 1.679 3.749 3.749 3.749 0.001 0 0.001 0 0.002 0h24.498c2.071 0 3.751-1.679 3.751-3.751v0-15c0-2.071-1.679-3.751-3.751-3.751v0zM30.499 23.5c0 1.243-1.007 2.25-2.25 2.25v0h-24.499c-0.001 0-0.001 0-0.002 0-1.243 0-2.25-1.007-2.25-2.25v0-15c0-0.001 0-0.001 0-0.002 0-1.243 1.007-2.25 2.25-2.25 0.001 0 0.001 0 0.002 0h24.498c1.243 0 2.25 1.007 2.25 2.25v0 15z"></path>
</symbol>
<symbol id="icon-tg" viewBox="0 0 32 32">
<path stroke-linejoin="round" stroke-linecap="round" stroke-miterlimit="10" stroke-width="2.24" d="M29.862 6.437l-4.208 19.845c-0.317 1.4-1.146 1.749-2.32 1.088l-6.413-4.723-3.094 2.976c-0.342 0.341-0.629 0.629-1.288 0.629l0.461-6.531 11.883-10.736c0.517-0.462-0.112-0.717-0.803-0.256l-14.691 9.248-6.323-1.976c-1.376-0.43-1.402-1.376 0.286-2.035l24.736-9.531c1.146-0.429 2.149 0.256 1.776 2.005z"></path>
</symbol>
<symbol id="icon-wh" viewBox="0 0 32 32">
<path d="M31.624 15.793c-0.005 2.707-0.593 5.095-1.78 7.313-1.136 2.108-2.689 3.855-4.56 5.181l-0.046 0.031c-1.593 1.149-3.479 2.004-5.521 2.44l-0.098 0.017c-0.939 0.204-2.018 0.321-3.124 0.321-1.294 0-2.551-0.16-3.752-0.461l0.106 0.023c-1.286-0.316-2.416-0.764-3.464-1.343l0.072 0.036c-0.089-0.053-0.196-0.085-0.311-0.085-0.079 0-0.155 0.015-0.225 0.043l0.004-0.001c-2.356 0.756-4.712 1.506-7.069 2.257-0.269 0.086-0.531 0.168-0.8 0.268-0.187 0.067-0.2 0-0.15-0.157 0.275-0.807 0.544-1.612 0.819-2.425 0.589-1.757 1.176-3.512 1.775-5.263 0.081-0.231-0.037-0.381-0.131-0.542-0.689-1.176-1.236-2.539-1.568-3.985l-0.019-0.098c-0.25-1.022-0.393-2.195-0.393-3.401 0-2.049 0.413-4.001 1.16-5.778l-0.037 0.098c0.728-1.768 1.715-3.285 2.933-4.582l-0.007 0.008c1.542-1.663 3.442-2.972 5.578-3.808l0.103-0.035c1.588-0.634 3.429-1.002 5.356-1.002 0.343 0 0.682 0.012 1.019 0.034l-0.046-0.002c2.981 0.18 5.693 1.169 8.074 2.968 3.082 2.324 5.019 5.381 5.794 9.176 0.207 0.968 0.283 1.95 0.307 2.755zM16.406 3.426c-0.054-0.001-0.118-0.002-0.182-0.002-0.622 0-1.232 0.053-1.826 0.154l0.064-0.009c-0.269 0.037-0.531 0.094-0.793 0.162-4.062 1.032-6.981 3.458-8.701 7.276-0.994 2.206-1.263 4.537-0.888 6.925 0.31 1.97 1.047 3.726 2.114 5.231l-0.026-0.038c0.118 0.175 0.136 0.325 0.067 0.519-0.461 1.357-0.911 2.72-1.368 4.083-0.025 0.074-0.101 0.162-0.032 0.231 0.069 0.074 0.157-0.007 0.232-0.032 1.368-0.438 2.737-0.867 4.093-1.324 0.313-0.106 0.539-0.057 0.807 0.106 3.069 1.844 6.349 2.331 9.805 1.411 2.626-0.694 4.788-2.124 6.501-4.237 1.573-1.9 2.588-4.313 2.767-6.955l0.002-0.038c0.023-0.283 0.036-0.612 0.036-0.944 0-1.762-0.37-3.438-1.036-4.954l0.031 0.079c-1.001-2.336-2.618-4.248-4.647-5.583l-0.047-0.029c-1.888-1.274-4.214-2.034-6.717-2.034-0.092 0-0.183 0.001-0.274 0.003l0.014-0z"></path>
<path d="M8.943 12.35c0.025-1.406 0.576-2.563 1.651-3.463 0.226-0.196 0.523-0.316 0.848-0.316 0.083 0 0.163 0.008 0.242 0.023l-0.008-0.001c0.175 0.025 0.357 0.051 0.525 0.032 0.424-0.032 0.669 0.205 0.8 0.556 0.399 1.051 0.787 2.105 1.181 3.156 0.029 0.073 0.046 0.157 0.046 0.245 0 0.119-0.031 0.231-0.085 0.328l0.002-0.003c-0.244 0.505-0.632 0.899-1.019 1.293-0.337 0.344-0.357 0.456-0.125 0.876 1.118 2.024 2.661 3.599 4.8 4.556 0.106 0.044 0.199 0.118 0.3 0.162 0.269 0.131 0.512 0.12 0.738-0.111 0.438-0.445 0.842-0.92 1.236-1.406 0.307-0.382 0.451-0.438 0.883-0.244 1.049 0.488 2.050 1.056 3.069 1.607 0.337 0.18 0.376 0.431 0.325 0.888-0.207 1.856-1.625 2.7-3.244 2.968-0.159 0.027-0.342 0.042-0.529 0.042-0.372 0-0.73-0.061-1.064-0.174l0.023 0.007c-1.499-0.475-2.974-1.024-4.3-1.886-1.245-0.833-2.311-1.812-3.209-2.93l-0.021-0.028c-0.865-1.047-1.655-2.22-2.325-3.466l-0.056-0.114c-0.376-0.731-0.682-1.869-0.682-2.594z"></path>
</symbol>
<symbol id="icon-vk-accent" viewBox="0 0 32 32">
<path fill="#bc0000" style="fill: var(--color1, #bc0000)" d="M28.89 22c-1.243-1.94-2.605-3.627-4.13-5.15l-0-0c-0.027-0.034-0.044-0.078-0.044-0.125s0.017-0.091 0.044-0.125l-0 0c1.245-1.679 2.424-3.582 3.444-5.579l0.107-0.23c0.129-0.25 0.205-0.546 0.205-0.859 0-0.371-0.106-0.717-0.29-1.009l0.005 0.008c-0.315-0.558-0.904-0.929-1.58-0.93h-3c-0.796 0.016-1.476 0.495-1.784 1.177l-0.005 0.013c-0.966 2.117-2.007 3.925-3.195 5.623l0.075-0.113v-4.9c0-0.002 0-0.005 0-0.008 0-0.99-0.802-1.792-1.792-1.792-0.003 0-0.006 0-0.009 0h-4.379c-0.764 0.012-1.378 0.634-1.378 1.399 0 0.304 0.097 0.585 0.261 0.814l-0.003-0.004 0.4 0.56c0.215 0.308 0.329 0.675 0.33 1.050v3.84c-1.244-1.816-2.301-3.903-3.065-6.126l-0.055-0.184c-0.278-0.792-1.019-1.349-1.89-1.35h-2.45c-0.946 0.012-1.709 0.781-1.709 1.73 0 0.146 0.018 0.287 0.052 0.422l-0.003-0.012c1.35 5.731 4.18 10.48 7.77 13 0.159 0.111 0.356 0.177 0.568 0.177 0.553 0 1-0.448 1-1 0-0.33-0.16-0.623-0.406-0.805l-0.003-0.002c-3.14-2.2-5.64-6.39-6.909-11.51h2.099c0.992 2.965 2.385 5.537 4.145 7.81l-0.045-0.060c0.296 0.375 0.75 0.614 1.26 0.614 0.194 0 0.379-0.034 0.551-0.097l-0.011 0.004c0.646-0.23 1.1-0.836 1.1-1.548 0-0.008-0-0.016-0-0.023v0.001-4.88c0-0.003 0-0.007 0-0.011 0-0.663-0.171-1.286-0.47-1.828l0.010 0.019h3v5.43c-0 0.005-0 0.011-0 0.017 0 0.807 0.54 1.487 1.278 1.701l0.012 0.003c0.164 0.056 0.353 0.089 0.549 0.089 0.603 0 1.135-0.307 1.447-0.773l0.004-0.006c1.323-1.863 2.533-3.985 3.527-6.225l0.093-0.235h2.8c-1.057 2.064-2.15 3.821-3.368 5.481l0.078-0.111c-0.27 0.358-0.432 0.809-0.432 1.299 0 0.597 0.241 1.138 0.632 1.53l-0-0c1.423 1.434 2.713 3.003 3.848 4.686l0.073 0.114h-3.35c-1.057-1.73-2.418-3.168-4.023-4.279l-0.047-0.030c-0.268-0.198-0.605-0.317-0.969-0.317-0.278 0-0.54 0.069-0.77 0.191l0.009-0.004c-0.551 0.286-0.921 0.852-0.921 1.504 0 0.006 0 0.011 0 0.017v-0.001 2.38c0 0.006 0 0.013 0 0.020 0 0.282-0.221 0.513-0.499 0.53l-0.001 0h-0.859c-0.552 0-1 0.448-1 1s0.448 1 1 1v0h0.859c1.384-0.011 2.501-1.135 2.501-2.52 0-0.010-0-0.021-0-0.031v0.002-1.769c1.2 0.909 2.2 2.011 2.97 3.269l0.029 0.051c0.345 0.59 0.97 0.984 1.688 1l0.002 0h3.379c0.002 0 0.003 0 0.005 0 0.723 0 1.352-0.399 1.68-0.99l0.005-0.010c0.155-0.278 0.246-0.609 0.246-0.962 0-0.388-0.111-0.75-0.302-1.057l0.005 0.008z"></path>
</symbol>
<symbol id="icon-inst-accent" viewBox="0 0 32 32">
<path fill="#e59b06" style="fill: var(--color3, #e59b06)" d="M15.997 2.347c-3.708 0-4.173 0.015-5.63 0.082-1.452 0.066-2.445 0.297-3.313 0.634-0.947 0.362-1.754 0.898-2.418 1.574l-0.001 0.001c-0.677 0.665-1.212 1.472-1.559 2.373l-0.015 0.046c-0.338 0.868-0.569 1.86-0.635 3.314-0.067 1.456-0.082 1.921-0.082 5.629s0.015 4.173 0.082 5.63c0.066 1.452 0.297 2.445 0.635 3.313 0.348 0.898 0.815 1.66 1.574 2.419 0.665 0.677 1.472 1.213 2.373 1.559l0.046 0.015c0.868 0.337 1.86 0.568 3.314 0.634 1.456 0.066 1.921 0.082 5.63 0.082 3.707 0 4.172-0.015 5.628-0.082 1.453-0.066 2.446-0.297 3.314-0.635 0.947-0.362 1.754-0.897 2.418-1.573l0.001-0.001c0.677-0.665 1.213-1.472 1.559-2.373l0.015-0.046c0.337-0.868 0.568-1.86 0.634-3.314 0.067-1.456 0.082-1.921 0.082-5.629s-0.015-4.173-0.082-5.63c-0.066-1.452-0.297-2.445-0.634-3.313-0.362-0.947-0.898-1.754-1.574-2.418l-0.001-0.001c-0.665-0.677-1.472-1.213-2.373-1.559l-0.046-0.015c-0.868-0.337-1.86-0.568-3.314-0.634-1.456-0.067-1.921-0.082-5.629-0.082zM15.997 4.807c3.646 0 4.078 0.014 5.517 0.080 1.331 0.060 2.054 0.283 2.535 0.47 0.616 0.231 1.14 0.578 1.569 1.019l0.001 0.001c0.443 0.43 0.791 0.954 1.012 1.541l0.010 0.029c0.187 0.482 0.409 1.205 0.47 2.536 0.065 1.44 0.080 1.871 0.080 5.517 0 3.645-0.015 4.077-0.080 5.517-0.061 1.331-0.284 2.054-0.47 2.535-0.231 0.616-0.579 1.14-1.021 1.569l-0.001 0.001c-0.43 0.442-0.954 0.79-1.541 1.011l-0.029 0.010c-0.48 0.188-1.204 0.41-2.535 0.47-1.44 0.066-1.871 0.080-5.517 0.080s-4.078-0.014-5.517-0.080c-1.331-0.060-2.054-0.282-2.535-0.47-0.616-0.231-1.14-0.578-1.569-1.019l-0.001-0.001c-0.442-0.43-0.79-0.954-1.011-1.541l-0.010-0.029c-0.187-0.482-0.41-1.205-0.47-2.536-0.066-1.44-0.080-1.872-0.080-5.517 0-3.646 0.014-4.077 0.080-5.517 0.060-1.331 0.283-2.054 0.47-2.535 0.231-0.616 0.578-1.14 1.019-1.569l0.001-0.001c0.43-0.443 0.954-0.791 1.541-1.012l0.029-0.010c0.482-0.186 1.205-0.409 2.536-0.47 1.44-0.065 1.871-0.080 5.517-0.080z"></path>
<path fill="#e59b06" style="fill: var(--color3, #e59b06)" d="M15.995 20.551c-2.513 0-4.551-2.038-4.551-4.551s2.038-4.551 4.551-4.551v0c2.513 0 4.551 2.038 4.551 4.551s-2.038 4.551-4.551 4.551v0zM15.995 8.989c-3.872 0-7.011 3.139-7.011 7.011s3.139 7.011 7.011 7.011v0c3.872 0 7.011-3.139 7.011-7.011s-3.139-7.011-7.011-7.011v0zM24.925 8.712c0 0.905-0.734 1.639-1.639 1.639s-1.639-0.734-1.639-1.639v0c0-0.905 0.734-1.639 1.639-1.639s1.639 0.734 1.639 1.639v0z"></path>
</symbol>
<symbol id="icon-facebook-accent" viewBox="0 0 32 32">
<path fill="none" stroke="#17c1bc" style="stroke: var(--color4, #17c1bc)" stroke-linejoin="miter" stroke-linecap="butt" stroke-miterlimit="4" stroke-width="2.1333" d="M22.797 12.506c0.001-0.006 0.001-0.014 0.001-0.021 0-0.118-0.096-0.213-0.213-0.213-0 0-0.001 0-0.001 0h-4.077v-2.831c0-1.062 0.704-1.311 1.2-1.311h2.833c0.117 0 0.212-0.096 0.212-0.213v-4.245c0-0.118-0.096-0.213-0.213-0.213v0l-3.981-0.016c-4.655 0-5.714 3.485-5.714 5.714v3.115h-2.481c-0.118 0-0.213 0.095-0.213 0.213v0 4.388c0 0.117 0.096 0.213 0.213 0.213h2.48v13.413c0 0.117 0.095 0.211 0.213 0.211h5.236c0.117 0 0.213-0.094 0.213-0.211v-13.413h3.628c0 0 0.001 0 0.001 0 0.11 0 0.201-0.084 0.212-0.191l0-0.001 0.45-4.387z"></path>
</symbol>
<symbol id="icon-people" viewBox="0 0 32 32">
<path fill="#0499dd" style="fill: var(--color1, #0499dd)" d="M21.999 18.667c-1.999 0-3.599 0.533-4.8 1.199 1.867 1.6 2.667 3.467 2.801 3.601l0.134 0.266v2.934h10.666v-2.667c-0.134 0-2.266-5.333-8.8-5.333zM21.999 16c2.577 0 4.666-2.089 4.666-4.666s-2.089-4.666-4.666-4.666v0c-2.577 0-4.666 2.089-4.666 4.666s2.089 4.666 4.666 4.666v0zM5.333 11.334c0-2.534 2.134-4.666 4.668-4.666 2.532 0 4.666 2.133 4.666 4.666 0 2.532-2.134 4.666-4.666 4.666-2.534 0-4.666-2.133-4.666-4.666zM10.001 18.666c-6.534 0-8.668 5.334-8.668 5.334v2.667h17.334v-2.667s-2.134-5.333-8.668-5.333z"></path>
</symbol>
<symbol id="icon-calendar" viewBox="0 0 32 32">
<path fill="#0499dd" style="fill: var(--color1, #0499dd)" d="M1.6 6.4c0-1.76 1.44-3.2 3.2-3.2h22.4c1.767 0 3.2 1.433 3.2 3.2v0 22.4c0 1.767-1.433 3.2-3.2 3.2v0h-22.4c-1.767 0-3.2-1.433-3.2-3.2v0-22.4zM4.8 9.6v19.2h22.4v-19.2h-22.4zM8 0h3.2v3.2h-3.2v-3.2zM20.8 0h3.2v3.2h-3.2v-3.2zM8 14.4h3.2v3.2h-3.2v-3.2zM8 20.8h3.2v3.2h-3.2v-3.2zM14.4 14.4h3.2v3.2h-3.2v-3.2zM14.4 20.8h3.2v3.2h-3.2v-3.2zM20.8 14.4h3.2v3.2h-3.2v-3.2zM20.8 20.8h3.2v3.2h-3.2v-3.2z"></path>
</symbol>
<symbol id="icon-map" viewBox="0 0 32 32">
<path fill="#0499dd" style="fill: var(--color1, #0499dd)" d="M23.525 14.699c0-3.974-3.2-7.174-7.174-7.174-3.973 0-7.173 3.2-7.173 7.174 0 3.973 7.174 11.393 7.174 11.393s7.173-7.42 7.173-11.393zM13.011 14.558c0.012-1.84 1.501-3.329 3.34-3.34h0.001c0 0 0.001 0 0.001 0 1.844 0 3.339 1.495 3.339 3.339 0 0 0 0.001 0 0.001v-0c0 0.001 0 0.001 0 0.002 0 1.844-1.495 3.339-3.339 3.339-0 0-0.001 0-0.001 0h0c-1.841-0.012-3.33-1.501-3.341-3.34v-0.001z"></path>
</symbol>
<symbol id="icon-heart" viewBox="0 0 32 32">
<path fill="none" stroke-linejoin="round" stroke-linecap="round" stroke-miterlimit="4" stroke-width="2.6667" d="M27.787 6.147c-1.327-1.328-3.161-2.149-5.187-2.149s-3.859 0.821-5.187 2.149l-1.413 1.413-1.413-1.413c-1.327-1.327-3.161-2.148-5.187-2.148-4.051 0-7.335 3.284-7.335 7.335 0 2.026 0.821 3.859 2.148 5.187l11.787 11.787 11.787-11.787c1.328-1.327 2.149-3.161 2.149-5.187s-0.821-3.859-2.149-5.187l-0-0z"></path>
</symbol>
</defs>
</svg>
