<svg aria-hidden="true" style="position: absolute; width: 0; height: 0; overflow: hidden;" version="1.1" xmlns="http://www.w3.org/2000/svg" xmlns:xlink="http://www.w3.org/1999/xlink">
<defs>
<symbol id="icon-arrow" viewBox="0 0 60 32">
    <path fill="#f8f8f8" style="fill: var(--color1, #f8f8f8)" d="M57.416 17.416c0.363-0.362 0.588-0.863 0.588-1.416s-0.225-1.054-0.588-1.416l-12.728-12.728c-0.362-0.362-0.863-0.587-1.416-0.587-1.106 0-2.003 0.897-2.003 2.003 0 0.553 0.224 1.054 0.587 1.416l11.316 11.312-11.316 11.312c-0.362 0.362-0.587 0.863-0.587 1.416 0 1.106 0.897 2.003 2.003 2.003 0.553 0 1.054-0.224 1.416-0.587v0l12.728-12.728zM0 18h56v-4h-56v4z"></path>
</symbol>
<symbol id="icon-vk" viewBox="0 0 32 32">
    <path fill="#fff" style="fill: var(--color1, #fff)" d="M28.89 22c-1.243-1.94-2.605-3.626-4.13-5.15l-0-0c-0.027-0.034-0.044-0.078-0.044-0.125s0.017-0.091 0.044-0.125l-0 0c1.245-1.679 2.424-3.582 3.443-5.58l0.107-0.23c0.129-0.25 0.205-0.546 0.205-0.859 0-0.371-0.106-0.717-0.29-1.009l0.005 0.008c-0.315-0.558-0.904-0.929-1.58-0.93h-3c-0.796 0.016-1.477 0.495-1.785 1.177l-0.005 0.013c-0.966 2.117-2.007 3.925-3.195 5.623l0.075-0.113v-4.9c0-0.004 0-0.008 0-0.012 0-0.988-0.8-1.788-1.788-1.788-0.004 0-0.008 0-0.013 0h-4.379c-0.764 0.012-1.378 0.634-1.378 1.4 0 0.304 0.097 0.585 0.261 0.814l-0.003-0.004 0.4 0.56c0.215 0.308 0.33 0.675 0.33 1.050v3.84c-1.244-1.816-2.3-3.903-3.065-6.126l-0.055-0.184c-0.278-0.792-1.019-1.349-1.89-1.35h-2.45c-0.946 0.012-1.709 0.782-1.709 1.73 0 0.146 0.018 0.287 0.052 0.422l-0.003-0.012c1.35 5.73 4.18 10.48 7.77 13 0.161 0.116 0.362 0.185 0.58 0.185 0.552 0 1-0.448 1-1 0-0.335-0.165-0.631-0.417-0.813l-0.003-0.002c-3.14-2.2-5.64-6.39-6.91-11.51h2.1c0.992 2.965 2.385 5.537 4.145 7.81l-0.045-0.060c0.296 0.375 0.75 0.614 1.26 0.614 0.194 0 0.379-0.034 0.551-0.097l-0.011 0.004c0.646-0.23 1.1-0.836 1.1-1.549 0-0.008-0-0.015-0-0.023v0.001-4.88c0-0.004 0-0.008 0-0.013 0-0.662-0.17-1.285-0.47-1.826l0.010 0.019h3v5.43c-0 0.005-0 0.011-0 0.016 0 0.807 0.54 1.487 1.278 1.701l0.012 0.003c0.164 0.056 0.353 0.089 0.549 0.089 0.603 0 1.134-0.307 1.447-0.773l0.004-0.006c1.323-1.863 2.533-3.985 3.527-6.225l0.093-0.235h2.8c-1.057 2.064-2.15 3.821-3.368 5.481l0.078-0.111c-0.27 0.358-0.432 0.809-0.432 1.299 0 0.597 0.241 1.138 0.632 1.531l-0-0c1.423 1.433 2.713 3.003 3.848 4.686l0.072 0.114h-3.35c-1.057-1.73-2.418-3.168-4.023-4.28l-0.047-0.030c-0.268-0.198-0.605-0.317-0.969-0.317-0.278 0-0.54 0.069-0.77 0.191l0.009-0.004c-0.551 0.286-0.92 0.852-0.92 1.504 0 0.005 0 0.011 0 0.016v-0.001 2.38c0 0.006 0 0.014 0 0.021 0 0.282-0.221 0.513-0.499 0.529l-0.001 0h-0.86c-0.552 0-1 0.448-1 1s0.448 1 1 1v0h0.86c1.383-0.011 2.5-1.135 2.5-2.52 0-0.011-0-0.021-0-0.032v0.002-1.77c1.2 0.909 2.2 2.011 2.971 3.269l0.029 0.051c0.345 0.59 0.97 0.984 1.688 1l0.002 0h3.38c0.001 0 0.003 0 0.005 0 0.723 0 1.353-0.4 1.68-0.99l0.005-0.010c0.155-0.278 0.247-0.609 0.247-0.962 0-0.388-0.11-0.75-0.301-1.056l0.005 0.008z"></path>
</symbol>
<symbol id="icon-inst" viewBox="0 0 32 32">
    <path fill="#fff" style="fill: var(--color1, #fff)" d="M15.997 2.347c-3.708 0-4.173 0.015-5.63 0.082-1.452 0.066-2.445 0.297-3.313 0.634-0.947 0.362-1.754 0.898-2.418 1.574l-0.001 0.001c-0.677 0.665-1.212 1.472-1.559 2.373l-0.015 0.046c-0.338 0.868-0.569 1.86-0.635 3.314-0.067 1.456-0.082 1.921-0.082 5.629s0.015 4.173 0.082 5.63c0.066 1.452 0.297 2.445 0.635 3.313 0.348 0.898 0.815 1.66 1.574 2.419 0.665 0.677 1.472 1.213 2.373 1.559l0.046 0.015c0.868 0.337 1.86 0.568 3.314 0.634 1.456 0.066 1.921 0.082 5.63 0.082 3.707 0 4.172-0.015 5.628-0.082 1.453-0.066 2.446-0.297 3.314-0.635 0.947-0.362 1.754-0.897 2.418-1.573l0.001-0.001c0.677-0.665 1.213-1.472 1.559-2.373l0.015-0.046c0.337-0.868 0.568-1.86 0.634-3.314 0.067-1.456 0.082-1.921 0.082-5.629s-0.015-4.173-0.082-5.63c-0.066-1.452-0.297-2.445-0.634-3.313-0.362-0.947-0.898-1.754-1.574-2.418l-0.001-0.001c-0.665-0.677-1.472-1.213-2.373-1.559l-0.046-0.015c-0.868-0.337-1.86-0.568-3.314-0.634-1.456-0.067-1.921-0.082-5.629-0.082zM15.997 4.807c3.646 0 4.078 0.014 5.517 0.080 1.331 0.060 2.054 0.283 2.535 0.47 0.616 0.231 1.14 0.578 1.569 1.019l0.001 0.001c0.443 0.43 0.791 0.954 1.012 1.541l0.010 0.029c0.187 0.482 0.409 1.205 0.47 2.536 0.065 1.44 0.080 1.871 0.080 5.517 0 3.645-0.015 4.077-0.080 5.517-0.061 1.331-0.284 2.054-0.47 2.535-0.231 0.616-0.579 1.14-1.021 1.569l-0.001 0.001c-0.43 0.442-0.954 0.79-1.541 1.011l-0.029 0.010c-0.48 0.188-1.204 0.41-2.535 0.47-1.44 0.066-1.871 0.080-5.517 0.080s-4.078-0.014-5.517-0.080c-1.331-0.060-2.054-0.282-2.535-0.47-0.616-0.231-1.14-0.578-1.569-1.019l-0.001-0.001c-0.442-0.43-0.79-0.954-1.011-1.541l-0.010-0.029c-0.187-0.482-0.41-1.205-0.47-2.536-0.066-1.44-0.080-1.872-0.080-5.517 0-3.646 0.014-4.077 0.080-5.517 0.060-1.331 0.283-2.054 0.47-2.535 0.231-0.616 0.578-1.14 1.019-1.569l0.001-0.001c0.43-0.443 0.954-0.791 1.541-1.012l0.029-0.010c0.482-0.186 1.205-0.409 2.536-0.47 1.44-0.065 1.871-0.080 5.517-0.080z"></path>
    <path fill="#fff" style="fill: var(--color1, #fff)" d="M15.995 20.551c-2.513 0-4.551-2.038-4.551-4.551s2.038-4.551 4.551-4.551v0c2.513 0 4.551 2.038 4.551 4.551s-2.038 4.551-4.551 4.551v0zM15.995 8.989c-3.872 0-7.011 3.139-7.011 7.011s3.139 7.011 7.011 7.011v0c3.872 0 7.011-3.139 7.011-7.011s-3.139-7.011-7.011-7.011v0zM24.925 8.712c0 0.905-0.733 1.638-1.638 1.638s-1.638-0.733-1.638-1.638v0c0-0.905 0.733-1.638 1.638-1.638s1.638 0.733 1.638 1.638v0z"></path>
</symbol>
<symbol id="icon-facebook" viewBox="0 0 32 32">
    <path fill="none" stroke="#fff" style="stroke: var(--color1, #fff)" stroke-linejoin="miter" stroke-linecap="butt" stroke-miterlimit="4" stroke-width="2.1333" d="M22.797 12.506c0.001-0.006 0.001-0.014 0.001-0.021 0-0.118-0.096-0.213-0.213-0.213-0 0-0.001 0-0.001 0h-4.077v-2.831c0-1.062 0.704-1.31 1.2-1.31h2.833c0.117 0 0.212-0.096 0.212-0.213v-4.247c0-0.118-0.096-0.213-0.213-0.213v0l-3.981-0.015c-4.655 0-5.714 3.485-5.714 5.715v3.115h-2.481c-0.118 0-0.213 0.095-0.213 0.213v0 4.387c0 0.117 0.096 0.213 0.213 0.213h2.48v13.413c0 0.117 0.095 0.211 0.213 0.211h5.236c0.117 0 0.213-0.093 0.213-0.211v-13.413h3.628c0 0 0.001 0 0.001 0 0.11 0 0.201-0.084 0.212-0.191l0-0.001 0.45-4.387z"></path>
</symbol>
</defs>
</svg>
