<svg width="19" height="19" fill="none" xmlns="http://www.w3.org/2000/svg">
  <g clip-path="url(#a)" fill="#282828">
    <path d="M18.777 9.377c-.003 1.607-.352 3.025-1.057 4.342a8.875 8.875 0 0 1-2.735 3.095 8.84 8.84 0 0 1-3.336 1.459 9.126 9.126 0 0 1-4.02-.07 8.297 8.297 0 0 1-2.014-.776.363.363 0 0 0-.316-.026c-1.399.449-2.798.894-4.197 1.34-.16.051-.315.1-.475.159-.111.04-.119 0-.089-.093.163-.479.323-.957.486-1.44.35-1.043.698-2.085 1.054-3.125.048-.137-.022-.226-.078-.322a8.654 8.654 0 0 1-.942-2.424 8.857 8.857 0 0 1 .434-5.392 8.814 8.814 0 0 1 1.737-2.716 8.953 8.953 0 0 1 3.373-2.282A8.795 8.795 0 0 1 10.36.53c1.77.107 3.38.694 4.794 1.762 1.83 1.38 2.98 3.195 3.44 5.448.123.575.168 1.158.182 1.636ZM9.741 2.034a6.412 6.412 0 0 0-1.154.085c-.16.022-.315.056-.471.096-2.412.613-4.145 2.053-5.166 4.32-.59 1.31-.75 2.694-.527 4.112a7.297 7.297 0 0 0 1.24 3.083c.07.104.081.193.04.308-.274.806-.541 1.615-.812 2.424-.015.044-.06.096-.019.137.041.044.093-.004.138-.019.812-.26 1.625-.515 2.43-.786.186-.063.32-.034.479.063 1.822 1.095 3.77 1.384 5.822.838 1.559-.412 2.843-1.261 3.86-2.516a7.285 7.285 0 0 0 1.644-4.152 7.322 7.322 0 0 0-.575-3.455 7.405 7.405 0 0 0-2.787-3.332A7.19 7.19 0 0 0 9.74 2.034Z"/>
    <path d="M5.31 7.333c.015-.835.342-1.522.98-2.056a.769.769 0 0 1 .642-.175c.104.015.212.03.312.019.252-.019.397.122.475.33.237.624.467 1.25.701 1.874a.399.399 0 0 1-.022.338c-.145.3-.375.534-.605.768-.2.204-.212.271-.074.52.664 1.202 1.58 2.137 2.85 2.705.063.026.118.07.178.096.16.078.304.071.438-.066.26-.264.5-.546.734-.835.182-.227.268-.26.524-.145.623.29 1.217.627 1.822.954.2.107.223.256.193.527-.123 1.102-.965 1.603-1.926 1.762a1.976 1.976 0 0 1-.932-.074c-.89-.282-1.766-.608-2.553-1.12a8.38 8.38 0 0 1-1.918-1.756 12.757 12.757 0 0 1-1.414-2.126c-.223-.434-.405-1.11-.405-1.54Z"/>
  </g>
  <defs>
    <clipPath id="a">
      <path fill="#fff" d="M0 0h19v19H0z"/>
    </clipPath>
  </defs>
</svg>
